<svg xmlns="http://www.w3.org/2000/svg" xmlns:xlink="http://www.w3.org/1999/xlink" viewBox="0 0 1024.66 714.52"><defs><style>.cls-1{fill:none;clip-rule:evenodd;}.cls-2{isolation:isolate;}.cls-3,.cls-34,.cls-5{fill-rule:evenodd;}.cls-3{fill:url(#linear-gradient);}.cls-4{fill:url(#linear-gradient-2);}.cls-5{fill:url(#linear-gradient-3);}.cls-6{fill:url(#linear-gradient-4);}.cls-7{fill:url(#linear-gradient-5);}.cls-8{fill:url(#linear-gradient-6);}.cls-9{fill:url(#linear-gradient-7);}.cls-10{fill:url(#radial-gradient);}.cls-11{fill:url(#linear-gradient-8);}.cls-12{fill:url(#radial-gradient-2);}.cls-13,.cls-15,.cls-16,.cls-17,.cls-18,.cls-19,.cls-20,.cls-21,.cls-22,.cls-23,.cls-24,.cls-25,.cls-26,.cls-27,.cls-28,.cls-29,.cls-30,.cls-31,.cls-32,.cls-33,.cls-35{mix-blend-mode:screen;}.cls-13{fill:url(#radial-gradient-3);}.cls-14{clip-path:url(#clip-path);}.cls-15{fill:url(#radial-gradient-4);}.cls-16{fill:url(#radial-gradient-5);}.cls-17{fill:url(#radial-gradient-6);}.cls-18{fill:url(#radial-gradient-7);}.cls-19{fill:url(#radial-gradient-8);}.cls-20{fill:url(#radial-gradient-9);}.cls-21{fill:url(#radial-gradient-10);}.cls-22{fill:url(#radial-gradient-11);}.cls-23{fill:url(#radial-gradient-12);}.cls-24{fill:url(#radial-gradient-13);}.cls-25{fill:url(#radial-gradient-14);}.cls-26{fill:url(#radial-gradient-15);}.cls-27{fill:url(#radial-gradient-16);}.cls-28{fill:url(#radial-gradient-17);}.cls-29{fill:url(#radial-gradient-18);}.cls-30{fill:url(#radial-gradient-19);}.cls-31{fill:url(#radial-gradient-20);}.cls-32{fill:url(#radial-gradient-21);}.cls-33{fill:url(#radial-gradient-22);}.cls-34{fill:url(#linear-gradient-9);}.cls-35{opacity:0.7;}.cls-36{fill:url(#linear-gradient-10);}.cls-37{fill:url(#linear-gradient-11);}.cls-38{fill:url(#radial-gradient-23);}.cls-39{fill:url(#radial-gradient-24);}.cls-40{fill:url(#Gradiente_sem_nome_4);}</style><linearGradient id="linear-gradient" x1="703.26" y1="255.14" x2="469.27" y2="255.14" gradientUnits="userSpaceOnUse"><stop offset="0" stop-color="#eebe47"/><stop offset="0.12" stop-color="#f8db77"/><stop offset="0.21" stop-color="#ffee96"/><stop offset="0.45" stop-color="#a2621e"/><stop offset="0.67" stop-color="#eea54c"/><stop offset="1" stop-color="#eebe47"/></linearGradient><linearGradient id="linear-gradient-2" x1="530.11" y1="239.63" x2="591.01" y2="239.63" gradientUnits="userSpaceOnUse"><stop offset="0" stop-color="#79380c"/><stop offset="0.05" stop-color="#794016"/><stop offset="0.21" stop-color="#795a35"/><stop offset="0.45" stop-color="#531200"/><stop offset="0.67" stop-color="#782a0f"/><stop offset="1" stop-color="#79380c"/></linearGradient><linearGradient id="linear-gradient-3" x1="17.26" y1="194.72" x2="259.11" y2="194.72" xlink:href="#linear-gradient"/><linearGradient id="linear-gradient-4" x1="121.02" y1="210.23" x2="181.91" y2="210.23" xlink:href="#linear-gradient-2"/><linearGradient id="linear-gradient-5" x1="-1016.6" y1="-1394.87" x2="-753.25" y2="-1093.8" gradientTransform="translate(-525.25 -1024.76) rotate(180)" xlink:href="#linear-gradient"/><linearGradient id="linear-gradient-6" x1="227.08" y1="68" x2="487.42" y2="365.63" xlink:href="#linear-gradient"/><linearGradient id="linear-gradient-7" x1="500.18" y1="74.42" x2="191.79" y2="387.26" gradientTransform="translate(25.95 -37.81) rotate(6.26)" xlink:href="#linear-gradient"/><radialGradient id="radial-gradient" cx="299.68" cy="130.73" r="326.86" gradientTransform="translate(562.73 -148.38) rotate(87.8)" gradientUnits="userSpaceOnUse"><stop offset="0" stop-color="#2c3c4f"/><stop offset="0.52" stop-color="#0d1d30"/><stop offset="1" stop-color="#060d29"/></radialGradient><linearGradient id="linear-gradient-8" x1="-1004.77" y1="-11.68" x2="-707.32" y2="285.77" gradientTransform="translate(-507.4 345.42) rotate(180)" xlink:href="#linear-gradient"/><radialGradient id="radial-gradient-2" cx="322.04" cy="20.01" r="429.59" gradientTransform="matrix(1, 0, 0, 1, 0, 0)" xlink:href="#radial-gradient"/><radialGradient id="radial-gradient-3" cx="283.91" cy="0.94" r="279.8" gradientUnits="userSpaceOnUse"><stop offset="0" stop-color="#fff1d1"/><stop offset="0.05" stop-color="#ffc94c"/><stop offset="0.14" stop-color="#a2621e"/><stop offset="0.16" stop-color="#965b1c"/><stop offset="0.25" stop-color="#6e4314"/><stop offset="0.34" stop-color="#4c2e0e"/><stop offset="0.44" stop-color="#301d09"/><stop offset="0.55" stop-color="#1b1005"/><stop offset="0.66" stop-color="#0c0702"/><stop offset="0.8" stop-color="#030201"/><stop offset="1"/></radialGradient><clipPath id="clip-path" transform="translate(118.94 118.52)"><path class="cls-1" d="M524.15,218A164.46,164.46,0,1,1,359.69,53.54,164.46,164.46,0,0,1,524.15,218Z"/></clipPath><radialGradient id="radial-gradient-4" cx="174.6" cy="204.5" r="133.86" gradientTransform="translate(0 0.05)" gradientUnits="userSpaceOnUse"><stop offset="0" stop-color="#c10000"/><stop offset="0.11" stop-color="#a80000"/><stop offset="0.43" stop-color="#600000"/><stop offset="0.69" stop-color="#2c0000"/><stop offset="0.89" stop-color="#0c0000"/><stop offset="1"/></radialGradient><radialGradient id="radial-gradient-5" cx="174.6" cy="204.5" r="83.81" gradientTransform="translate(0 0.05)" gradientUnits="userSpaceOnUse"><stop offset="0" stop-color="#ffb405"/><stop offset="0.28" stop-color="#a97703"/><stop offset="0.54" stop-color="#614402"/><stop offset="0.75" stop-color="#2c1f01"/><stop offset="0.91" stop-color="#0c0900"/><stop offset="1"/></radialGradient><radialGradient id="radial-gradient-6" cx="174.59" cy="204.5" r="39.66" gradientTransform="translate(0 0.05)" gradientUnits="userSpaceOnUse"><stop offset="0" stop-color="#fff"/><stop offset="0.12" stop-color="#c7c7c7"/><stop offset="0.24" stop-color="#939393"/><stop offset="0.37" stop-color="#666"/><stop offset="0.5" stop-color="#414141"/><stop offset="0.63" stop-color="#252525"/><stop offset="0.75" stop-color="#101010"/><stop offset="0.88" stop-color="#040404"/><stop offset="1"/></radialGradient><radialGradient id="radial-gradient-7" cx="1122.21" cy="-534.38" r="133.85" gradientTransform="translate(-213.46 1376.39) scale(0.35 2.19)" xlink:href="#radial-gradient-4"/><radialGradient id="radial-gradient-8" cx="1122.2" cy="-534.38" r="83.81" gradientTransform="translate(-213.46 1376.39) scale(0.35 2.19)" xlink:href="#radial-gradient-5"/><radialGradient id="radial-gradient-9" cx="1122.2" cy="-534.38" r="39.66" gradientTransform="translate(-213.46 1376.39) scale(0.35 2.19)" xlink:href="#radial-gradient-6"/><radialGradient id="radial-gradient-10" cx="3601.93" cy="-1382.73" r="133.85" gradientTransform="translate(-2857.73 -1041) rotate(90) scale(0.35 2.19)" xlink:href="#radial-gradient-4"/><radialGradient id="radial-gradient-11" cx="3601.93" cy="-1382.73" r="83.81" gradientTransform="translate(-2857.73 -1041) rotate(90) scale(0.35 2.19)" xlink:href="#radial-gradient-5"/><radialGradient id="radial-gradient-12" cx="3601.93" cy="-1382.73" r="39.66" gradientTransform="translate(-2857.73 -1041) rotate(90) scale(0.35 2.19)" xlink:href="#radial-gradient-6"/><radialGradient id="radial-gradient-13" cx="548.46" cy="238.69" r="162.91" xlink:href="#radial-gradient-4"/><radialGradient id="radial-gradient-14" cx="548.46" cy="238.69" r="102.01" xlink:href="#radial-gradient-5"/><radialGradient id="radial-gradient-15" cx="548.46" cy="238.69" r="48.27" xlink:href="#radial-gradient-6"/><radialGradient id="radial-gradient-16" cx="2203.36" cy="-518.79" r="162.91" gradientTransform="translate(-213.46 1376.39) scale(0.35 2.19)" xlink:href="#radial-gradient-4"/><radialGradient id="radial-gradient-17" cx="2203.36" cy="-518.79" r="102.01" gradientTransform="translate(-213.46 1376.39) scale(0.35 2.19)" xlink:href="#radial-gradient-5"/><radialGradient id="radial-gradient-18" cx="2203.36" cy="-518.79" r="48.27" gradientTransform="translate(-213.46 1376.39) scale(0.35 2.19)" xlink:href="#radial-gradient-6"/><radialGradient id="radial-gradient-19" cx="3700.79" cy="-1553.21" r="162.9" gradientTransform="translate(-2857.73 -1041) rotate(90) scale(0.35 2.19)" xlink:href="#radial-gradient-4"/><radialGradient id="radial-gradient-20" cx="3700.79" cy="-1553.21" r="102.01" gradientTransform="translate(-2857.73 -1041) rotate(90) scale(0.35 2.19)" xlink:href="#radial-gradient-5"/><radialGradient id="radial-gradient-21" cx="3700.79" cy="-1553.21" r="48.27" gradientTransform="translate(-2857.73 -1041) rotate(90) scale(0.35 2.19)" xlink:href="#radial-gradient-6"/><radialGradient id="radial-gradient-22" cx="438.02" cy="-32.42" r="399.47" xlink:href="#radial-gradient-3"/><linearGradient id="linear-gradient-9" x1="121.02" y1="224.93" x2="591.01" y2="224.93" xlink:href="#linear-gradient"/><linearGradient id="linear-gradient-10" x1="176.95" y1="302.99" x2="654.37" y2="471.63" xlink:href="#linear-gradient"/><linearGradient id="linear-gradient-11" x1="441.11" y1="258.48" x2="918.58" y2="427.14" xlink:href="#linear-gradient"/><radialGradient id="radial-gradient-23" cx="245.06" cy="207.92" r="289.34" gradientTransform="matrix(1, 0, 0, 1, 0, 0)" xlink:href="#radial-gradient"/><radialGradient id="radial-gradient-24" cx="468.38" cy="279.07" r="289.35" gradientTransform="matrix(1, 0, 0, 1, 0, 0)" xlink:href="#radial-gradient"/><linearGradient id="Gradiente_sem_nome_4" x1="139.95" y1="224.55" x2="560.78" y2="224.55" gradientTransform="matrix(1, 0, 0, 1, 0, 0)" xlink:href="#radial-gradient"/></defs><title>40anos</title><g class="cls-2"><g id="Camada_1" data-name="Camada 1"><path class="cls-3" d="M530.11,294.41s20.3,14.84,60.9,7.81,82-20.75,110.86-3c0,0-19.12-39.6-46.45-49,0,0,10.56-21.1,41.77-35.51,0,0-18.12-13.58-69.14-4.1-46.21,8.59-62.8,3.29-83.1-4.5Z" transform="translate(118.94 118.52)"/><path class="cls-4" d="M591,264.75s-40.6,3.9-60.9,29.66V207.75S558.22,182,591,185.12Z" transform="translate(118.94 118.52)"/><path class="cls-5" d="M181.91,155.45s-20.3-14.83-60.89-7.81-82,20.75-110.87,3c0,0,19.13,39.61,46.46,49,0,0-10.56,21.1-41.77,35.51,0,0,18.11,13.58,69.13,4.1,46.22-8.59,62.81-3.29,83.1,4.51Z" transform="translate(118.94 118.52)"/><path class="cls-6" d="M121,185.12s40.59-3.91,60.89-29.67v86.66S153.8,267.87,121,264.75Z" transform="translate(118.94 118.52)"/><path class="cls-7" d="M221.19,81.83a24.32,24.32,0,0,1,26.64-22.39c13.62,1.33,29.81-7.56,36-19.77A24.31,24.31,0,0,1,317,29.19c12.06,6.44,30.43,4.42,40.81-4.49a24.31,24.31,0,0,1,34.67,3c8.68,10.57,26.43,15.73,39.42,11.47a24.3,24.3,0,0,1,30.87,16.05c4,13.08,18.4,24.64,32,25.68a24.3,24.3,0,0,1,22.38,26.64c-1.33,13.62,7.57,29.81,19.77,36a24.29,24.29,0,0,1,10.48,33.17c-6.44,12.07-4.42,30.44,4.49,40.82a24.31,24.31,0,0,1-3,34.66c-10.57,8.69-15.73,26.43-11.47,39.43a24.32,24.32,0,0,1-16.05,30.88c-13.08,4-24.64,18.39-25.68,32a24.32,24.32,0,0,1-26.65,22.38c-13.61-1.33-29.81,7.57-36,19.77a24.31,24.31,0,0,1-33.18,10.48c-12.06-6.43-30.43-4.42-40.81,4.49a24.31,24.31,0,0,1-34.67-3C315.75,398.09,298,392.93,285,397.19a24.32,24.32,0,0,1-30.88-16.05c-4-13.09-18.39-24.65-32-25.69a24.31,24.31,0,0,1-22.39-26.64c1.33-13.61-7.56-29.81-19.77-36a24.31,24.31,0,0,1-10.47-33.18c6.43-12.07,4.41-30.43-4.5-40.82a24.3,24.3,0,0,1,3-34.66c10.57-8.69,15.73-26.43,11.47-39.42a24.31,24.31,0,0,1,16-30.88C208.59,109.88,220.15,95.46,221.19,81.83Z" transform="translate(118.94 118.52)"/><path class="cls-8" d="M494.15,353a24,24,0,0,1-26.34,22.13c-13.46-1.32-29.47,7.48-35.58,19.54A24,24,0,0,1,399.43,405c-11.93-6.37-30.09-4.37-40.35,4.44a24,24,0,0,1-34.27-3c-8.58-10.45-26.12-15.55-39-11.34a24,24,0,0,1-30.52-15.86c-3.93-12.94-18.19-24.37-31.67-25.4a24,24,0,0,1-22.13-26.33C202.84,314.09,194,298.08,182,292a24,24,0,0,1-10.36-32.8c6.37-11.93,4.37-30.09-4.44-40.35a24,24,0,0,1,3-34.27c10.44-8.58,15.55-26.12,11.34-39a24,24,0,0,1,15.86-30.53c12.94-3.93,24.36-18.18,25.39-31.67a24,24,0,0,1,26.34-22.12c13.46,1.31,29.47-7.48,35.58-19.54a24,24,0,0,1,32.8-10.37c11.93,6.37,30.09,4.37,40.35-4.44a24,24,0,0,1,34.27,3c8.58,10.44,26.13,15.54,39,11.33A24,24,0,0,1,461.58,57.1c3.94,12.93,18.19,24.36,31.68,25.39a24,24,0,0,1,22.12,26.34c-1.31,13.46,7.48,29.47,19.55,35.58a24,24,0,0,1,10.36,32.8c-6.37,11.93-4.37,30.08,4.44,40.35a24,24,0,0,1-3,34.26c-10.44,8.59-15.55,26.13-11.34,39a24,24,0,0,1-15.86,30.52C506.6,325.26,495.18,339.51,494.15,353Z" transform="translate(118.94 118.52)"/><circle class="cls-9" cx="358.46" cy="218.19" r="180.63" transform="translate(97.28 158.94) rotate(-6.26)"/><circle class="cls-10" cx="358.46" cy="218.19" r="175.82" transform="translate(245.62 686.53) rotate(-87.8)"/><path class="cls-11" d="M195.23,218.19A163.23,163.23,0,1,1,358.46,381.41,163.22,163.22,0,0,1,195.23,218.19Z" transform="translate(118.94 118.52)"/><path class="cls-12" d="M513.74,218.19A155.29,155.29,0,1,1,358.46,62.9,155.28,155.28,0,0,1,513.74,218.19Z" transform="translate(118.94 118.52)"/><path class="cls-13" d="M290.64,357.91l67.82-139.72L286.9,356C288.14,356.65,289.38,357.3,290.64,357.91Zm-15.72-8.85,83.54-130.87L271.39,346.78C272.54,347.56,273.73,348.3,274.92,349.06Zm83.54,24.41c.7,0,1.39,0,2.09-.05l-2.09-155.23-2.1,155.23C357.06,373.43,357.75,373.47,358.46,373.47Zm-51.13-8.65,51.13-146.63-55.07,145.2C304.7,363.89,306,364.36,307.33,364.82Zm-47.05-26.33,98.18-120.3L257.09,335.77C258.15,336.69,259.2,337.61,260.28,338.49Zm64.43,31.27,33.75-151.57L320.63,368.81C322,369.15,323.35,369.45,324.71,369.76Zm17.79,2.9,16-154.47L338.33,372.13C339.71,372.32,341.09,372.53,342.5,372.66ZM205.92,247.24l152.54-29.05L205.18,243.11C205.4,244.49,205.66,245.87,205.92,247.24Zm4.34,17.47,148.2-46.52L209.1,260.68C209.48,262,209.85,263.37,210.26,264.71ZM225,297.62l133.43-79.43L222.93,294C223.62,295.2,224.31,296.43,225,297.62Zm10.14,14.95,123.29-94.38-125.8,91C233.48,310.33,234.32,311.45,235.17,312.57Zm-18.47-31,141.76-63.4L215,277.75C215.56,279,216.13,280.31,216.7,281.59Zm179.58,87.22L358.46,218.19,392.2,369.76C393.57,369.45,394.93,369.15,396.28,368.81ZM507.81,260.68,358.46,218.19l148.19,46.52C507.07,263.37,507.43,262,507.81,260.68Zm-5.91,17.07L358.46,218.19l141.75,63.4C500.78,280.31,501.35,279,501.9,277.75ZM494,294l-135.52-75.8,133.42,79.43C492.6,296.43,493.29,295.2,494,294Zm19.33-64.7c.1-1.39.2-2.78.26-4.18l-155.11-6.92ZM484.24,309.2l-125.78-91,123.28,94.38C482.59,311.45,483.42,310.33,484.24,309.2Zm27.49-66.09L358.46,218.19,511,247.24C511.25,245.87,511.5,244.49,511.73,243.11Zm-38.87,80.06-114.4-105,111.5,108C470.94,325.2,471.91,324.2,472.86,323.17Zm-59.34,40.22-55.06-145.2,51.11,146.63C410.9,364.36,412.21,363.89,413.52,363.39Zm-34.94,8.74L358.46,218.19l16,154.47C375.81,372.53,377.19,372.32,378.58,372.13Zm-175-142.84,154.86-11.1-155.12,6.92C203.4,226.51,203.51,227.9,203.6,229.29ZM430,356l-71.55-137.8,67.81,139.72C427.53,357.3,428.77,356.65,430,356Zm15.51-9.21L358.46,218.19,442,349.06C443.18,348.3,444.36,347.56,445.52,346.78Zm14.31-11L358.46,218.19l98.17,120.3C457.71,337.61,458.76,336.69,459.83,335.77ZM247,326.21l111.51-108-114.4,105C245,324.2,246,325.2,247,326.21Zm223-216-111.5,108,114.39-105C471.91,112.17,470.93,111.17,470,110.16Zm-43.69-31.7L358.46,218.19,430,80.38C428.77,79.73,427.53,79.07,426.27,78.46Zm30.35,19.42L358.46,218.19,459.82,100.6C458.76,99.68,457.71,98.76,456.62,97.88ZM442,87.31,358.46,218.19l87.06-128.6C444.36,88.8,443.17,88.06,442,87.31ZM392.2,66.62,358.46,218.19,396.28,67.57C394.93,67.22,393.56,66.91,392.2,66.62Zm17.37,4.93L358.46,218.19,413.52,73C412.21,72.48,410.9,72,409.57,71.55ZM511,189.13,358.46,218.19l153.27-24.93C511.5,191.88,511.25,190.51,511,189.13ZM374.41,63.71l-16,154.48L378.58,64.24C377.19,64.06,375.81,63.85,374.41,63.71Zm138.9,143.36L358.46,218.19l155.11-6.93C513.51,209.85,513.4,208.46,513.31,207.07ZM481.74,123.8,358.46,218.19l125.78-91C483.42,126,482.59,124.91,481.74,123.8Zm24.9,47.86L358.46,218.19l149.35-42.5C507.42,174.34,507.06,173,506.64,171.66Zm-14.76-32.92L358.46,218.19,494,142.38C493.29,141.16,492.6,140,491.88,138.74Zm8.32,16L358.46,218.19l143.43-59.56C501.35,157.33,500.78,156.06,500.2,154.78Zm-277.26-12.4,135.52,75.81L225,138.74C224.31,140,223.62,141.16,222.94,142.38Zm21.12-29.19,114.4,105L247,110.16C246,111.17,245,112.17,244.06,113.19Zm-29,45.44,143.44,59.56L216.7,154.78C216.14,156.06,215.56,157.33,215,158.63Zm17.65-31.46,125.79,91L235.17,123.8C234.32,124.91,233.49,126,232.67,127.17Zm-29.33,84.09,155.12,6.93L203.6,207.07C203.51,208.46,203.4,209.85,203.34,211.26Zm1.84-18,153.28,24.93L205.92,189.13C205.66,190.51,205.4,191.88,205.18,193.26Zm3.92-17.57,149.36,42.5L210.27,171.66C209.85,173,209.48,174.34,209.1,175.69Zm48-75.09L358.46,218.19,260.28,97.88C259.21,98.76,258.15,99.68,257.09,100.6ZM303.39,73l55.07,145.21L307.33,71.55C306,72,304.7,72.48,303.39,73Zm17.24-5.41,37.83,150.62L324.71,66.62C323.36,66.91,322,67.22,320.63,67.57Zm37.83-4.67c-.71,0-1.4,0-2.1.05l2.1,155.24L360.55,63C359.85,62.94,359.16,62.9,358.46,62.9Zm-20.13,1.34,20.13,154-16-154.48C341.09,63.85,339.71,64.06,338.33,64.24ZM271.39,89.59l87.07,128.6L274.92,87.31C273.74,88.06,272.55,88.8,271.39,89.59Zm15.51-9.21,71.56,137.81L290.64,78.46C289.38,79.07,288.14,79.73,286.9,80.38Z" transform="translate(118.94 118.52)"/><g class="cls-14"><path class="cls-15" d="M308.45,204.55A133.86,133.86,0,1,1,174.6,70.7,133.86,133.86,0,0,1,308.45,204.55Z" transform="translate(118.94 118.52)"/><path class="cls-16" d="M258.41,204.55a83.82,83.82,0,1,1-83.81-83.81A83.82,83.82,0,0,1,258.41,204.55Z" transform="translate(118.94 118.52)"/><path class="cls-17" d="M214.26,204.55a39.67,39.67,0,1,1-39.66-39.66A39.66,39.66,0,0,1,214.26,204.55Z" transform="translate(118.94 118.52)"/><path class="cls-18" d="M220.88,204.54c0,162.1-20.72,293.55-46.28,293.55s-46.29-131.45-46.29-293.55S149-89,174.6-89,220.88,42.43,220.88,204.54Z" transform="translate(118.94 118.52)"/><path class="cls-19" d="M203.58,204.54c0,101.51-13,183.81-29,183.81s-29-82.3-29-183.81,13-183.78,29-183.78S203.58,103,203.58,204.54Z" transform="translate(118.94 118.52)"/><path class="cls-20" d="M188.31,204.54c0,48-6.14,87-13.71,87s-13.72-38.95-13.72-87,6.14-87,13.72-87S188.31,156.51,188.31,204.54Z" transform="translate(118.94 118.52)"/><path class="cls-21" d="M174.6,250.83c-162.1,0-293.54-20.72-293.54-46.28S12.5,158.27,174.6,158.27,468.14,179,468.14,204.55,336.71,250.83,174.6,250.83Z" transform="translate(118.94 118.52)"/><path class="cls-22" d="M174.6,233.53c-101.51,0-183.81-13-183.81-29s82.3-29,183.81-29,183.79,13,183.79,29S276.1,233.53,174.6,233.53Z" transform="translate(118.94 118.52)"/><path class="cls-23" d="M174.6,218.26c-48,0-87-6.14-87-13.71s38.95-13.71,87-13.71,87,6.14,87,13.71S222.64,218.26,174.6,218.26Z" transform="translate(118.94 118.52)"/><path class="cls-24" d="M711.37,238.73A162.91,162.91,0,1,1,548.46,75.83,162.92,162.92,0,0,1,711.37,238.73Z" transform="translate(118.94 118.52)"/><path class="cls-25" d="M650.47,238.73a102,102,0,1,1-102-102A102,102,0,0,1,650.47,238.73Z" transform="translate(118.94 118.52)"/><path class="cls-26" d="M596.73,238.73a48.27,48.27,0,1,1-48.27-48.26A48.28,48.28,0,0,1,596.73,238.73Z" transform="translate(118.94 118.52)"/><path class="cls-27" d="M604.79,238.73C604.79,436,579.57,596,548.46,596s-56.33-160-56.33-357.27,25.22-357.25,56.33-357.25S604.79,41.43,604.79,238.73Z" transform="translate(118.94 118.52)"/><path class="cls-28" d="M583.73,238.73c0,123.54-15.79,223.71-35.27,223.71s-35.27-100.17-35.27-223.71S529,15,548.46,15,583.73,115.2,583.73,238.73Z" transform="translate(118.94 118.52)"/><path class="cls-29" d="M565.15,238.73c0,58.46-7.47,105.86-16.69,105.86s-16.69-47.4-16.69-105.86,7.47-105.85,16.69-105.85S565.15,180.27,565.15,238.73Z" transform="translate(118.94 118.52)"/><path class="cls-30" d="M548.47,295.07c-197.3,0-357.27-25.22-357.27-56.33s160-56.33,357.27-56.33,357.25,25.22,357.25,56.33S745.77,295.07,548.47,295.07Z" transform="translate(118.94 118.52)"/><path class="cls-31" d="M548.47,274c-123.55,0-223.71-15.79-223.71-35.27s100.16-35.28,223.71-35.28,223.69,15.8,223.69,35.28S672,274,548.47,274Z" transform="translate(118.94 118.52)"/><path class="cls-32" d="M548.47,255.43C490,255.43,442.6,248,442.6,238.74S490,222.05,548.47,222.05s105.84,7.47,105.84,16.69S606.93,255.43,548.47,255.43Z" transform="translate(118.94 118.52)"/></g><path class="cls-33" d="M253.78,332.88A569.49,569.49,0,0,1,465.69,105.93a155.26,155.26,0,1,0-211.91,227Z" transform="translate(118.94 118.52)"/><path class="cls-34" d="M591,264.75c-159.22-49.71-310.77,49.71-470,0V185.11c159.22,49.71,310.76-49.7,470,0Z" transform="translate(118.94 118.52)"/><g class="cls-35"><polygon class="cls-36" points="220.76 328.42 210.9 322.58 201.03 328.43 203.54 317.23 194.92 309.66 206.34 308.59 210.89 298.05 215.44 308.58 226.86 309.65 218.25 317.23 220.76 328.42"/><polygon class="cls-37" points="758.59 380.58 748.73 374.73 738.86 380.58 741.37 369.39 732.75 361.82 744.17 360.74 748.71 350.21 753.26 360.74 764.69 361.8 756.07 369.38 758.59 380.58"/></g><polygon class="cls-38" points="220.76 328.42 210.9 322.58 201.03 328.43 203.54 317.23 194.93 309.66 206.34 308.59 210.89 298.05 215.43 308.58 226.86 309.65 218.25 317.23 220.76 328.42"/><polygon class="cls-39" points="758.59 380.58 748.72 374.73 738.86 380.58 741.37 369.39 732.75 361.82 744.17 360.74 748.71 350.21 753.26 360.74 764.69 361.8 756.07 369.38 758.59 380.58"/><path d="M163.31,215.32V228q9.09,1.74,18.2,2.92v3.27c-6.07-.81-12.14-1.78-18.2-3V244q-2.58-.53-5.16-1.09V230.16q-9.09-1.92-18.2-4.46v-3.18c6.07,1.69,12.14,3.15,18.2,4.42V214.33C159.87,214.68,161.59,215,163.31,215.32Z" transform="translate(118.94 118.52)"/><path d="M241.35,210.25v33.23a63.08,63.08,0,0,0,.32,7.09q-3.18,0-6.36.05c-.11-1.58-.21-3.16-.32-4.75h-.16c-2.18,3.06-6.93,5.37-13.29,5.17-9.42-.3-16.67-6.37-16.67-14.49-.08-8.92,8-13.93,17.47-13.86,6,.05,10,1.95,11.76,4.14h.16V210.49Q237.82,210.4,241.35,210.25Zm-7.09,24.15a6.32,6.32,0,0,0-.32-2.09c-1.05-3.16-4.91-5.69-10.23-5.74-7.33-.06-11.68,4.18-11.67,10.14,0,5.44,3.86,10.21,11.51,10.4,4.75.12,9.1-2.07,10.39-5.81a6.25,6.25,0,0,0,.32-2.15Z" transform="translate(118.94 118.52)"/><path d="M257.06,237.15c.16,6.82,6.28,9.36,13.37,8.89a33.76,33.76,0,0,0,10.79-2.27c.4,1.19.8,2.39,1.21,3.58a41.64,41.64,0,0,1-13,2.69c-12,.73-19.17-4.72-19.17-13s6.93-15.19,18.28-16.12c12.73-1.08,16.11,6.61,16.11,11.84a14.84,14.84,0,0,1-.24,2.42C275.31,236,266.19,236.68,257.06,237.15Zm20.78-5.09c.08-3.27-1.86-8.12-9.83-7.48-7.17.55-10.31,5.42-10.87,8.95Q267.49,233,277.84,232.06Z" transform="translate(118.94 118.52)"/><path d="M330.19,243.52V232.87c-8.11,1-16.22,2-24.32,2.94v-3.43q11.67-13.63,23.35-27.81l7.65-1.12v24.39l7.33-1v4.19l-7.33.95V242.7Zm0-14.8V215.67q0-3.06.24-6.17l-.24,0c-1.61,2.51-2.9,4.37-4.35,6.37q-6.4,7.5-12.81,14.85v.12Q321.61,229.85,330.19,228.72Z" transform="translate(118.94 118.52)"/><path d="M384.39,216.27c0,13.76-6.6,22.08-18.2,23.47C356,241,349,234.6,348.87,221.56c0-13.24,7.58-21.68,18.21-23.27C378.11,196.65,384.39,203.38,384.39,216.27ZM356,220.65c0,10.32,4.19,15.66,10.63,14.86,7.25-.89,10.71-7.8,10.71-18.08,0-9.92-3.3-16-10.63-14.9C360.47,203.44,356,209.85,356,220.65Z" transform="translate(118.94 118.52)"/><path d="M431.83,232.56c-.19-1.29-.38-2.58-.56-3.86H431c-2.17,2.58-6.36,5-11.92,5.46-7.89.64-11.92-3.3-11.91-7.72,0-7.33,8.37-12.37,23.43-13.5v-.64c0-2.55-.89-7.12-8.86-6.39a24.81,24.81,0,0,0-10.15,3.29c-.53-1.17-1.07-2.33-1.61-3.49a30.86,30.86,0,0,1,12.81-4c11.92-1.1,14.82,5.26,14.82,11.47v11.62a34.79,34.79,0,0,0,.64,7.41C436.12,232.3,434,232.43,431.83,232.56Zm-1.05-15.72c-7.73.43-16.51,2.36-16.51,8.3,0,3.61,3.06,5,6.69,4.76,5.07-.41,8.29-3.17,9.42-5.88a5,5,0,0,0,.4-1.81Z" transform="translate(118.94 118.52)"/><path d="M449.07,208.91c0-3.23-.08-5.87-.33-8.44,2.1-.11,4.19-.21,6.29-.29.13,1.72.26,3.44.4,5.17h.16c1.93-3.05,6.44-6.15,12.89-6.24,5.39-.11,13.77,2.64,13.77,13.6v19c-2.37-.09-4.73-.15-7.09-.2v-18.3c0-5.11-2.34-9.43-9-9.34-4.67.08-8.3,2.87-9.5,6.09a6.7,6.7,0,0,0-.49,2.67v18.88q-3.54.08-7.08.19Z" transform="translate(118.94 118.52)"/><path d="M529,219.88c0,12.11-10,15.64-19.41,14.61-10.55-1.2-18.68-8-18.68-18.09,0-10.69,8.53-16.71,19.33-15.7C521.47,201.76,529,209.87,529,219.88Zm-30.92-3.24A13.22,13.22,0,0,0,510,230.11c6.77.76,11.84-3.78,11.84-11.13,0-5.51-3.3-13-11.67-13.87S498.12,210.55,498.12,216.64Z" transform="translate(118.94 118.52)"/><path d="M537,231.89a27.69,27.69,0,0,0,9.34,4.39c5.16,1.2,7.57-.32,7.57-3.08s-2-5-7.25-7.84c-7-3.69-10.31-7.5-10.31-11.45,0-5.27,5.08-8.79,13.45-6.9a25.55,25.55,0,0,1,9.59,4.42l-1.77,3.93a20.63,20.63,0,0,0-8-3.88c-4.19-.95-6.52.63-6.52,3.08,0,2.73,2.33,4.41,7.41,7.26,6.76,3.81,10.23,7.74,10.23,12.68,0,5.88-5.32,8.37-14.58,6.18a33.3,33.3,0,0,1-11-4.59Z" transform="translate(118.94 118.52)"/><path d="M163.31,215.32V228q9.09,1.74,18.2,2.92v3.27c-6.07-.81-12.14-1.78-18.2-3V244q-2.58-.53-5.16-1.09V230.16q-9.09-1.92-18.2-4.46v-3.18c6.07,1.69,12.14,3.15,18.2,4.42V214.33C159.87,214.68,161.59,215,163.31,215.32Z" transform="translate(118.94 118.52)"/><path d="M241.35,210.25v33.23a63.08,63.08,0,0,0,.32,7.09q-3.18,0-6.36.05c-.11-1.58-.21-3.16-.32-4.75h-.16c-2.18,3.06-6.93,5.37-13.29,5.17-9.42-.3-16.67-6.37-16.67-14.49-.08-8.92,8-13.93,17.47-13.86,6,.05,10,1.95,11.76,4.14h.16V210.49Q237.82,210.4,241.35,210.25Zm-7.09,24.15a6.32,6.32,0,0,0-.32-2.09c-1.05-3.16-4.91-5.69-10.23-5.74-7.33-.06-11.68,4.18-11.67,10.14,0,5.44,3.86,10.21,11.51,10.4,4.75.12,9.1-2.07,10.39-5.81a6.25,6.25,0,0,0,.32-2.15Z" transform="translate(118.94 118.52)"/><path d="M257.06,237.15c.16,6.82,6.28,9.36,13.37,8.89a33.76,33.76,0,0,0,10.79-2.27c.4,1.19.8,2.39,1.21,3.58a41.64,41.64,0,0,1-13,2.69c-12,.73-19.17-4.72-19.17-13s6.93-15.19,18.28-16.12c12.73-1.08,16.11,6.61,16.11,11.84a14.84,14.84,0,0,1-.24,2.42C275.31,236,266.19,236.68,257.06,237.15Zm20.78-5.09c.08-3.27-1.86-8.12-9.83-7.48-7.17.55-10.31,5.42-10.87,8.95Q267.49,233,277.84,232.06Z" transform="translate(118.94 118.52)"/><path d="M330.19,243.52V232.87c-8.11,1-16.22,2-24.32,2.94v-3.43q11.67-13.63,23.35-27.81l7.65-1.12v24.39l7.33-1v4.19l-7.33.95V242.7Zm0-14.8V215.67q0-3.06.24-6.17l-.24,0c-1.61,2.51-2.9,4.37-4.35,6.37q-6.4,7.5-12.81,14.85v.12Q321.61,229.85,330.19,228.72Z" transform="translate(118.94 118.52)"/><path d="M384.39,216.27c0,13.76-6.6,22.08-18.2,23.47C356,241,349,234.6,348.87,221.56c0-13.24,7.58-21.68,18.21-23.27C378.11,196.65,384.39,203.38,384.39,216.27ZM356,220.65c0,10.32,4.19,15.66,10.63,14.86,7.25-.89,10.71-7.8,10.71-18.08,0-9.92-3.3-16-10.63-14.9C360.47,203.44,356,209.85,356,220.65Z" transform="translate(118.94 118.52)"/><path d="M431.83,232.56c-.19-1.29-.38-2.58-.56-3.86H431c-2.17,2.58-6.36,5-11.92,5.46-7.89.64-11.92-3.3-11.91-7.72,0-7.33,8.37-12.37,23.43-13.5v-.64c0-2.55-.89-7.12-8.86-6.39a24.81,24.81,0,0,0-10.15,3.29c-.53-1.17-1.07-2.33-1.61-3.49a30.86,30.86,0,0,1,12.81-4c11.92-1.1,14.82,5.26,14.82,11.47v11.62a34.79,34.79,0,0,0,.64,7.41C436.12,232.3,434,232.43,431.83,232.56Zm-1.05-15.72c-7.73.43-16.51,2.36-16.51,8.3,0,3.61,3.06,5,6.69,4.76,5.07-.41,8.29-3.17,9.42-5.88a5,5,0,0,0,.4-1.81Z" transform="translate(118.94 118.52)"/><path d="M449.07,208.91c0-3.23-.08-5.87-.33-8.44,2.1-.11,4.19-.21,6.29-.29.13,1.72.26,3.44.4,5.17h.16c1.93-3.05,6.44-6.15,12.89-6.24,5.39-.11,13.77,2.64,13.77,13.6v19c-2.37-.09-4.73-.15-7.09-.2v-18.3c0-5.11-2.34-9.43-9-9.34-4.67.08-8.3,2.87-9.5,6.09a6.7,6.7,0,0,0-.49,2.67v18.88q-3.54.08-7.08.19Z" transform="translate(118.94 118.52)"/><path d="M529,219.88c0,12.11-10,15.64-19.41,14.61-10.55-1.2-18.68-8-18.68-18.09,0-10.69,8.53-16.71,19.33-15.7C521.47,201.76,529,209.87,529,219.88Zm-30.92-3.24A13.22,13.22,0,0,0,510,230.11c6.77.76,11.84-3.78,11.84-11.13,0-5.51-3.3-13-11.67-13.87S498.12,210.55,498.12,216.64Z" transform="translate(118.94 118.52)"/><path d="M537,231.89a27.69,27.69,0,0,0,9.34,4.39c5.16,1.2,7.57-.32,7.57-3.08s-2-5-7.25-7.84c-7-3.69-10.31-7.5-10.31-11.45,0-5.27,5.08-8.79,13.45-6.9a25.55,25.55,0,0,1,9.59,4.42l-1.77,3.93a20.63,20.63,0,0,0-8-3.88c-4.19-.95-6.52.63-6.52,3.08,0,2.73,2.33,4.41,7.41,7.26,6.76,3.81,10.23,7.74,10.23,12.68,0,5.88-5.32,8.37-14.58,6.18a33.3,33.3,0,0,1-11-4.59Z" transform="translate(118.94 118.52)"/><path d="M163.31,215.32V228q9.09,1.74,18.2,2.92v3.27c-6.07-.81-12.14-1.78-18.2-3V244q-2.58-.53-5.16-1.09V230.16q-9.09-1.92-18.2-4.46v-3.18c6.07,1.69,12.14,3.15,18.2,4.42V214.33C159.87,214.68,161.59,215,163.31,215.32Z" transform="translate(118.94 118.52)"/><path d="M241.35,210.25v33.23a63.08,63.08,0,0,0,.32,7.09q-3.18,0-6.36.05c-.11-1.58-.21-3.16-.32-4.75h-.16c-2.18,3.06-6.93,5.37-13.29,5.17-9.42-.3-16.67-6.37-16.67-14.49-.08-8.92,8-13.93,17.47-13.86,6,.05,10,1.95,11.76,4.14h.16V210.49Q237.82,210.4,241.35,210.25Zm-7.09,24.15a6.32,6.32,0,0,0-.32-2.09c-1.05-3.16-4.91-5.69-10.23-5.74-7.33-.06-11.68,4.18-11.67,10.14,0,5.44,3.86,10.21,11.51,10.4,4.75.12,9.1-2.07,10.39-5.81a6.25,6.25,0,0,0,.32-2.15Z" transform="translate(118.94 118.52)"/><path d="M257.06,237.15c.16,6.82,6.28,9.36,13.37,8.89a33.76,33.76,0,0,0,10.79-2.27c.4,1.19.8,2.39,1.21,3.58a41.64,41.64,0,0,1-13,2.69c-12,.73-19.17-4.72-19.17-13s6.93-15.19,18.28-16.12c12.73-1.08,16.11,6.61,16.11,11.84a14.84,14.84,0,0,1-.24,2.42C275.31,236,266.19,236.68,257.06,237.15Zm20.78-5.09c.08-3.27-1.86-8.12-9.83-7.48-7.17.55-10.31,5.42-10.87,8.95Q267.49,233,277.84,232.06Z" transform="translate(118.94 118.52)"/><path d="M330.19,243.52V232.87c-8.11,1-16.22,2-24.32,2.94v-3.43q11.67-13.63,23.35-27.81l7.65-1.12v24.39l7.33-1v4.19l-7.33.95V242.7Zm0-14.8V215.67q0-3.06.24-6.17l-.24,0c-1.61,2.51-2.9,4.37-4.35,6.37q-6.4,7.5-12.81,14.85v.12Q321.61,229.85,330.19,228.72Z" transform="translate(118.94 118.52)"/><path d="M384.39,216.27c0,13.76-6.6,22.08-18.2,23.47C356,241,349,234.6,348.87,221.56c0-13.24,7.58-21.68,18.21-23.27C378.11,196.65,384.39,203.38,384.39,216.27ZM356,220.65c0,10.32,4.19,15.66,10.63,14.86,7.25-.89,10.71-7.8,10.71-18.08,0-9.92-3.3-16-10.63-14.9C360.47,203.44,356,209.85,356,220.65Z" transform="translate(118.94 118.52)"/><path d="M431.83,232.56c-.19-1.29-.38-2.58-.56-3.86H431c-2.17,2.58-6.36,5-11.92,5.46-7.89.64-11.92-3.3-11.91-7.72,0-7.33,8.37-12.37,23.43-13.5v-.64c0-2.55-.89-7.12-8.86-6.39a24.81,24.81,0,0,0-10.15,3.29c-.53-1.17-1.07-2.33-1.61-3.49a30.86,30.86,0,0,1,12.81-4c11.92-1.1,14.82,5.26,14.82,11.47v11.62a34.79,34.79,0,0,0,.64,7.41C436.12,232.3,434,232.43,431.83,232.56Zm-1.05-15.72c-7.73.43-16.51,2.36-16.51,8.3,0,3.61,3.06,5,6.69,4.76,5.07-.41,8.29-3.17,9.42-5.88a5,5,0,0,0,.4-1.81Z" transform="translate(118.94 118.52)"/><path d="M449.07,208.91c0-3.23-.08-5.87-.33-8.44,2.1-.11,4.19-.21,6.29-.29.13,1.72.26,3.44.4,5.17h.16c1.93-3.05,6.44-6.15,12.89-6.24,5.39-.11,13.77,2.64,13.77,13.6v19c-2.37-.09-4.73-.15-7.09-.2v-18.3c0-5.11-2.34-9.43-9-9.34-4.67.08-8.3,2.87-9.5,6.09a6.7,6.7,0,0,0-.49,2.67v18.88q-3.54.08-7.08.19Z" transform="translate(118.94 118.52)"/><path d="M529,219.88c0,12.11-10,15.64-19.41,14.61-10.55-1.2-18.68-8-18.68-18.09,0-10.69,8.53-16.71,19.33-15.7C521.47,201.76,529,209.87,529,219.88Zm-30.92-3.24A13.22,13.22,0,0,0,510,230.11c6.77.76,11.84-3.78,11.84-11.13,0-5.51-3.3-13-11.67-13.87S498.12,210.55,498.12,216.64Z" transform="translate(118.94 118.52)"/><path d="M537,231.89a27.69,27.69,0,0,0,9.34,4.39c5.16,1.2,7.57-.32,7.57-3.08s-2-5-7.25-7.84c-7-3.69-10.31-7.5-10.31-11.45,0-5.27,5.08-8.79,13.45-6.9a25.55,25.55,0,0,1,9.59,4.42l-1.77,3.93a20.63,20.63,0,0,0-8-3.88c-4.19-.95-6.52.63-6.52,3.08,0,2.73,2.33,4.41,7.41,7.26,6.76,3.81,10.23,7.74,10.23,12.68,0,5.88-5.32,8.37-14.58,6.18a33.3,33.3,0,0,1-11-4.59Z" transform="translate(118.94 118.52)"/><path class="cls-40" d="M163.31,215.32V228q9.09,1.74,18.2,2.92v3.27c-6.07-.81-12.14-1.78-18.2-3V244q-2.58-.53-5.16-1.09V230.16q-9.09-1.92-18.2-4.46v-3.18c6.07,1.69,12.14,3.15,18.2,4.42V214.33C159.87,214.68,161.59,215,163.31,215.32Z" transform="translate(118.94 118.52)"/><path class="cls-40" d="M241.35,210.25v33.23a63.08,63.08,0,0,0,.32,7.09q-3.18,0-6.36.05c-.11-1.58-.21-3.16-.32-4.75h-.16c-2.18,3.06-6.93,5.37-13.29,5.17-9.42-.3-16.67-6.37-16.67-14.49-.08-8.92,8-13.93,17.47-13.86,6,.05,10,1.95,11.76,4.14h.16V210.49Q237.82,210.4,241.35,210.25Zm-7.09,24.15a6.32,6.32,0,0,0-.32-2.09c-1.05-3.16-4.91-5.69-10.23-5.74-7.33-.06-11.68,4.18-11.67,10.14,0,5.44,3.86,10.21,11.51,10.4,4.75.12,9.1-2.07,10.39-5.81a6.25,6.25,0,0,0,.32-2.15Z" transform="translate(118.94 118.52)"/><path class="cls-40" d="M257.06,237.15c.16,6.82,6.28,9.36,13.37,8.89a33.76,33.76,0,0,0,10.79-2.27c.4,1.19.8,2.39,1.21,3.58a41.64,41.64,0,0,1-13,2.69c-12,.73-19.17-4.72-19.17-13s6.93-15.19,18.28-16.12c12.73-1.08,16.11,6.61,16.11,11.84a14.84,14.84,0,0,1-.24,2.42C275.31,236,266.19,236.68,257.06,237.15Zm20.78-5.09c.08-3.27-1.86-8.12-9.83-7.48-7.17.55-10.31,5.42-10.87,8.95Q267.49,233,277.84,232.06Z" transform="translate(118.94 118.52)"/><path class="cls-40" d="M330.19,243.52V232.87c-8.11,1-16.22,2-24.32,2.94v-3.43q11.67-13.63,23.35-27.81l7.65-1.12v24.39l7.33-1v4.19l-7.33.95V242.7Zm0-14.8V215.67q0-3.06.24-6.17l-.24,0c-1.61,2.51-2.9,4.37-4.35,6.37q-6.4,7.5-12.81,14.85v.12Q321.61,229.85,330.19,228.72Z" transform="translate(118.94 118.52)"/><path class="cls-40" d="M384.39,216.27c0,13.76-6.6,22.08-18.2,23.47C356,241,349,234.6,348.87,221.56c0-13.24,7.58-21.68,18.21-23.27C378.11,196.65,384.39,203.38,384.39,216.27ZM356,220.65c0,10.32,4.19,15.66,10.63,14.86,7.25-.89,10.71-7.8,10.71-18.08,0-9.92-3.3-16-10.63-14.9C360.47,203.44,356,209.85,356,220.65Z" transform="translate(118.94 118.52)"/><path class="cls-40" d="M431.83,232.56c-.19-1.29-.38-2.58-.56-3.86H431c-2.17,2.58-6.36,5-11.92,5.46-7.89.64-11.92-3.3-11.91-7.72,0-7.33,8.37-12.37,23.43-13.5v-.64c0-2.55-.89-7.12-8.86-6.39a24.81,24.81,0,0,0-10.15,3.29c-.53-1.17-1.07-2.33-1.61-3.49a30.86,30.86,0,0,1,12.81-4c11.92-1.1,14.82,5.26,14.82,11.47v11.62a34.79,34.79,0,0,0,.64,7.41C436.12,232.3,434,232.43,431.83,232.56Zm-1.05-15.72c-7.73.43-16.51,2.36-16.51,8.3,0,3.61,3.06,5,6.69,4.76,5.07-.41,8.29-3.17,9.42-5.88a5,5,0,0,0,.4-1.81Z" transform="translate(118.94 118.52)"/><path class="cls-40" d="M449.07,208.91c0-3.23-.08-5.87-.33-8.44,2.1-.11,4.19-.21,6.29-.29.13,1.72.26,3.44.4,5.17h.16c1.93-3.05,6.44-6.15,12.89-6.24,5.39-.11,13.77,2.64,13.77,13.6v19c-2.37-.09-4.73-.15-7.09-.2v-18.3c0-5.11-2.34-9.43-9-9.34-4.67.08-8.3,2.87-9.5,6.09a6.7,6.7,0,0,0-.49,2.67v18.88q-3.54.08-7.08.19Z" transform="translate(118.94 118.52)"/><path class="cls-40" d="M529,219.88c0,12.11-10,15.64-19.41,14.61-10.55-1.2-18.68-8-18.68-18.09,0-10.69,8.53-16.71,19.33-15.7C521.47,201.76,529,209.87,529,219.88Zm-30.92-3.24A13.22,13.22,0,0,0,510,230.11c6.77.76,11.84-3.78,11.84-11.13,0-5.51-3.3-13-11.67-13.87S498.12,210.55,498.12,216.64Z" transform="translate(118.94 118.52)"/><path class="cls-40" d="M537,231.89a27.69,27.69,0,0,0,9.34,4.39c5.16,1.2,7.57-.32,7.57-3.08s-2-5-7.25-7.84c-7-3.69-10.31-7.5-10.31-11.45,0-5.27,5.08-8.79,13.45-6.9a25.55,25.55,0,0,1,9.59,4.42l-1.77,3.93a20.63,20.63,0,0,0-8-3.88c-4.19-.95-6.52.63-6.52,3.08,0,2.73,2.33,4.41,7.41,7.26,6.76,3.81,10.23,7.74,10.23,12.68,0,5.88-5.32,8.37-14.58,6.18a33.3,33.3,0,0,1-11-4.59Z" transform="translate(118.94 118.52)"/></g></g></svg>