<svg id="Camada_1" data-name="Camada 1" xmlns="http://www.w3.org/2000/svg" xmlns:xlink="http://www.w3.org/1999/xlink" viewBox="0 0 375.71 388.06"><defs><style>.cls-1{fill:url(#Gradiente_sem_nome_175);}.cls-2{fill:url(#Gradiente_sem_nome_181);}.cls-3{fill:url(#Gradiente_sem_nome_123);}</style><linearGradient id="Gradiente_sem_nome_175" x1="15.29" y1="325.29" x2="391" y2="325.29" gradientUnits="userSpaceOnUse"><stop offset="0.05" stop-color="#240f05"/><stop offset="0.19" stop-color="#ffde6a"/><stop offset="0.32" stop-color="#91711c"/><stop offset="0.36" stop-color="#6a4a00"/><stop offset="0.64" stop-color="#ffe26a"/><stop offset="0.91" stop-color="#3f3000"/></linearGradient><linearGradient id="Gradiente_sem_nome_181" x1="89.03" y1="-4.36" x2="87.68" y2="348.64" gradientUnits="userSpaceOnUse"><stop offset="0.05" stop-color="#fff"/><stop offset="0.14" stop-color="#ededed"/><stop offset="0.31" stop-color="#bfbfbf"/><stop offset="0.56" stop-color="#737373"/><stop offset="0.86" stop-color="#0d0d0d"/><stop offset="0.9"/></linearGradient><linearGradient id="Gradiente_sem_nome_123" x1="107.37" y1="67.21" x2="383.75" y2="67.21" gradientUnits="userSpaceOnUse"><stop offset="0.05" stop-color="#240f05"/><stop offset="0.19" stop-color="#e9d772"/><stop offset="0.32" stop-color="#866919"/><stop offset="0.36" stop-color="#6a4a00"/><stop offset="0.64" stop-color="#ffea7f"/><stop offset="0.91" stop-color="#3f3000"/></linearGradient></defs><title>logocontecmenor</title><path class="cls-1" d="M391,404.21,90.34,407.06s-57.13-16.42-70-72.12c0,0-5.71-21.43-5-91.42,0,0,31.43,65.71,90,67.13H316a85.44,85.44,0,0,1,25.71,8.93c24.33,13.15,35.36,34.7,39.28,43.56a111,111,0,0,1,4.38,11A111.07,111.07,0,0,1,391,404.21Z" transform="translate(-15.29 -19)"/><path class="cls-2" d="M18.09,94v141.4s16.6,65.34,93.73,72.31c0,0-3.21-3.75-7.5-21.43l1.08-184.79s6.42-62.66,54.09-77.12c0,0-45-9.64-70.7,0C88.79,24.36,28.27,39.89,18.09,94Z" transform="translate(-15.29 -19)"/><path class="cls-3" d="M107.37,115.41H308.05s38.56,1,62.13-55.7L383.75,19H181.64S115.94,23.28,107.37,115.41Z" transform="translate(-15.29 -19)"/></svg>