<svg id="Camada_1" data-name="Camada 1" xmlns="http://www.w3.org/2000/svg" xmlns:xlink="http://www.w3.org/1999/xlink" viewBox="0 0 708.69 732"><defs><style>.cls-1{fill:url(#Gradiente_sem_nome_175);}.cls-2{fill:url(#Gradiente_sem_nome_181);}.cls-3{fill:url(#Gradiente_sem_nome_123);}</style><linearGradient id="Gradiente_sem_nome_175" x1="256.29" y1="698.76" x2="964.98" y2="698.76" gradientUnits="userSpaceOnUse"><stop offset="0.05" stop-color="#240f05"/><stop offset="0.19" stop-color="#ffde6a"/><stop offset="0.32" stop-color="#91711c"/><stop offset="0.36" stop-color="#6a4a00"/><stop offset="0.64" stop-color="#ffe26a"/><stop offset="0.91" stop-color="#3f3000"/></linearGradient><linearGradient id="Gradiente_sem_nome_181" x1="395.39" y1="76.94" x2="392.84" y2="742.79" gradientUnits="userSpaceOnUse"><stop offset="0.05" stop-color="#fff"/><stop offset="0.14" stop-color="#ededed"/><stop offset="0.31" stop-color="#bfbfbf"/><stop offset="0.56" stop-color="#737373"/><stop offset="0.86" stop-color="#0d0d0d"/><stop offset="0.9"/></linearGradient><linearGradient id="Gradiente_sem_nome_123" x1="429.98" y1="211.93" x2="951.31" y2="211.93" gradientUnits="userSpaceOnUse"><stop offset="0.05" stop-color="#240f05"/><stop offset="0.19" stop-color="#e9d772"/><stop offset="0.32" stop-color="#866919"/><stop offset="0.36" stop-color="#6a4a00"/><stop offset="0.64" stop-color="#ffea7f"/><stop offset="0.91" stop-color="#3f3000"/></linearGradient></defs><title>logocontec</title><path class="cls-1" d="M965,847.61,397.85,853s-107.76-31-132-136.06c0,0-10.78-40.41-9.43-172.43,0,0,59.27,123.94,169.73,126.63h397.4A161.38,161.38,0,0,1,872,688c45.9,24.81,66.7,65.45,74.09,82.17a203.8,203.8,0,0,1,8.25,20.72A208,208,0,0,1,965,847.61Z" transform="translate(-256.29 -121)"/><path class="cls-2" d="M261.57,262.45V529.17s31.32,123.26,176.81,136.39c0,0-6.07-7.07-14.15-40.41l2-348.56s12.13-118.21,102-145.49c0,0-84.86-18.18-133.36,0C394.93,131.1,280.77,160.4,261.57,262.45Z" transform="translate(-256.29 -121)"/><path class="cls-3" d="M430,302.86H808.52s72.74,1.79,117.19-105.08L951.31,121H570.08S446.15,129.08,430,302.86Z" transform="translate(-256.29 -121)"/></svg>